<svg width="25" height="24" viewBox="0 0 25 24" fill="none" xmlns="http://www.w3.org/2000/svg">
<path d="M6.25 14.625L3.125 17.75" stroke="#F21D1D" stroke-width="2" stroke-linecap="round" stroke-linejoin="round"/>
<path d="M3.125 14.625L6.25 17.75" stroke="#F21D1D" stroke-width="2" stroke-linecap="round" stroke-linejoin="round"/>
<path d="M13.5416 12.5417C16.4181 12.5417 18.75 10.2098 18.75 7.33333C18.75 4.45685 16.4181 2.125 13.5416 2.125C10.6652 2.125 8.33331 4.45685 8.33331 7.33333C8.33331 10.2098 10.6652 12.5417 13.5416 12.5417Z" stroke="#F21D1D" stroke-width="2" stroke-linecap="round" stroke-linejoin="round"/>
<path d="M10.4167 20.875H20.8334C21.1096 20.875 21.3746 20.7653 21.5699 20.5699C21.7653 20.3746 21.875 20.1096 21.875 19.8333C21.875 17.8995 21.1068 16.0448 19.7393 14.6773C18.3719 13.3099 16.5172 12.5417 14.5834 12.5417H12.5C11.7945 12.5397 11.0926 12.6415 10.4167 12.8438" stroke="#F21D1D" stroke-width="2" stroke-linecap="round" stroke-linejoin="round"/>
</svg>
