<svg width="26" height="17" viewBox="0 0 26 17" fill="none" xmlns="http://www.w3.org/2000/svg">
<path d="M13 17C20.8 17 26 8.5 26 8.5C26 8.5 20.8 0 13 0C5.2 0 0 8.5 0 8.5C0 8.5 5.2 17 13 17ZM13 2.42857C17.5968 2.42857 21.2817 6.426 22.8806 8.49514C21.2732 10.5619 17.5656 14.5714 13 14.5714C8.4032 14.5714 4.71835 10.574 3.11935 8.50486C4.7268 6.43814 8.4344 2.42857 13 2.42857Z" fill="#795218"/>
<path d="M13 13.3572C15.8717 13.3572 18.2 11.1824 18.2 8.50001C18.2 5.81765 15.8717 3.64287 13 3.64287C10.1283 3.64287 7.80002 5.81765 7.80002 8.50001C7.80002 11.1824 10.1283 13.3572 13 13.3572ZM13 6.07144C14.4339 6.07144 15.6 7.16065 15.6 8.50001C15.6 9.83937 14.4339 10.9286 13 10.9286C11.5661 10.9286 10.4 9.83937 10.4 8.50001C10.4 7.16065 11.5661 6.07144 13 6.07144Z" fill="#795218"/>
</svg>
