<svg width="21" height="21" viewBox="0 0 21 21" fill="none" xmlns="http://www.w3.org/2000/svg">
<path d="M10.4547 2.09063H4.11367C2.94632 2.09063 2 3.03695 2 4.2043V16.8863C2 18.0536 2.94632 19 4.11367 19H16.7957C17.9631 19 18.9094 18.0536 18.9094 16.8863V10.5453M17.2334 6.75571L18.381 5.60825C19.2063 4.78281 19.2063 3.44451 18.381 2.61908C17.5555 1.79364 16.2172 1.79364 15.3917 2.61909L14.2443 3.76654M17.2334 6.75571L10.8541 13.1351C10.559 13.4302 10.1832 13.6314 9.77409 13.7132L6.66511 14.3349L7.2869 11.226C7.36874 10.8168 7.56986 10.441 7.86492 10.146L14.2443 3.76654M17.2334 6.75571L14.2443 3.76654" stroke="#795218" stroke-width="2.5" stroke-linecap="round" stroke-linejoin="round"/>
</svg>
